<?xml version="1.0" encoding="UTF-8"?>
<svg width="24px" height="24px" viewBox="0 0 24 24" version="1.1" xmlns="http://www.w3.org/2000/svg" xmlns:xlink="http://www.w3.org/1999/xlink">
    <!-- Generator: Sketch 46.2 (44496) - http://www.bohemiancoding.com/sketch -->
    <title>Combined Shape</title>
    <desc>Created with Sketch.</desc>
    <defs></defs>
    <g id="页面" stroke="none" stroke-width="1" fill="none" fill-rule="evenodd">
        <g id="赞赏页面" transform="translate(-440.000000, -756.000000)" fill="#6178F0">
            <g id="button" transform="translate(274.000000, 744.000000)">
                <path d="M176.599663,25.785113 L173.54056,22.7260101 C172.888502,22.0739517 171.829385,22.0701098 171.178511,22.7209836 C170.5231,23.3763952 170.529888,24.4293828 171.183538,25.0830327 L175.88753,29.787025 C176.539588,30.4390834 177.598705,30.4429253 178.249579,29.7920514 C178.28815,29.7534806 178.324427,29.7135329 178.358414,29.6723707 C178.403383,29.6345829 178.447103,29.5945273 178.489424,29.5522065 L185.552206,22.4894241 C186.336245,21.7053851 186.337398,20.4379028 185.556349,19.6568542 C184.769855,18.8703603 183.507116,18.8776604 182.723779,19.6609969 L176.599663,25.785113 Z M178,36 C171.372583,36 166,30.627417 166,24 C166,17.372583 171.372583,12 178,12 C184.627417,12 190,17.372583 190,24 C190,30.627417 184.627417,36 178,36 Z" id="Combined-Shape"></path>
            </g>
        </g>
    </g>
</svg>