<?xml version="1.0" encoding="UTF-8"?>
<svg width="44px" height="44px" viewBox="0 0 44 44" version="1.1" xmlns="http://www.w3.org/2000/svg" xmlns:xlink="http://www.w3.org/1999/xlink">
    <!-- Generator: Sketch 46.2 (44496) - http://www.bohemiancoding.com/sketch -->
    <title>44px</title>
    <desc>Created with Sketch.</desc>
    <defs></defs>
    <g id="播放器" stroke="none" stroke-width="1" fill="none" fill-rule="evenodd">
        <g id="FM播放器" transform="translate(-353.000000, -962.000000)" fill="#B5B5B5">
            <g id="icon" transform="translate(353.000000, 962.000000)">
                <path d="M24,24 L28,24 C29.1045695,24 30,23.1045695 30,22 C30,20.8954305 29.1045695,20 28,20 L25.2549297,20 C25.3136433,19.9266192 25.3675731,19.8478883 25.416,19.764 L29.554,12.596 C30.0717667,11.6990896 29.7644102,10.5522672 28.8674998,10.0345003 C27.9705895,9.51673341 26.823767,9.82408977 26.306,10.721 L22.168,17.889 L22.168,17.889 C22.0971971,18.0116496 22.0418236,18.1389725 22.0012774,18.268721 C21.9605961,18.1372435 21.9047122,18.0082247 21.833,17.884 L17.695,10.716 C17.4463073,10.285202 17.0366225,9.9708811 16.5561208,9.8422222 C16.0756192,9.71356329 15.5636851,9.78111192 15.133,10.03 C14.7022702,10.2785 14.3879679,10.6880061 14.2593024,11.1683451 C14.1306368,11.6486842 14.1981588,12.1604673 14.447,12.591 L18.585,19.759 C18.6345286,19.8447968 18.6898134,19.9251988 18.7500849,20 L16,20 C14.8954305,20 14,20.8954305 14,22 C14,23.1045695 14.8954305,24 16,24 L20,24 L20,26 L16,26 C14.8954305,26 14,26.8954305 14,28 C14,29.1045695 14.8954305,30 16,30 L20,30 L20,33 C20,34.1045695 20.8954305,35 22,35 C23.1045695,35 24,34.1045695 24,33 L24,30 L28,30 C29.1045695,30 30,29.1045695 30,28 C30,26.8954305 29.1045695,26 28,26 L24,26 L24,24 Z M22,0 C34.1502645,0 44,9.8497355 44,22 C44,34.1502645 34.1502645,44 22,44 C9.8497355,44 0,34.1502645 0,22 C0,9.8497355 9.8497355,0 22,0 Z" id="nav_button_support_nor-2"></path>
            </g>
        </g>
    </g>
</svg>