<?xml version="1.0" encoding="UTF-8"?>
<svg width="44px" height="44px" viewBox="0 0 44 44" version="1.1" xmlns="http://www.w3.org/2000/svg" xmlns:xlink="http://www.w3.org/1999/xlink">
    <!-- Generator: Sketch 46.2 (44496) - http://www.bohemiancoding.com/sketch -->
    <title>44px</title>
    <desc>Created with Sketch.</desc>
    <defs></defs>
    <g id="播放器" stroke="none" stroke-width="1" fill="none" fill-rule="evenodd">
        <g id="FM播放器" transform="translate(-189.000000, -962.000000)" fill="#BDBDBD">
            <g id="icon" transform="translate(189.000000, 962.000000)">
                <path d="M35.1174335,28.0015762 C36.6769996,28.0434646 38,28.9151308 38,30 L38,33 C38,34.111 36.61,35 35,35 L9,35 C7.39,35 6,34.111 6,33 L6,30 C6,28.9151308 7.32300042,28.0434646 8.88256655,28.0015762 C9.4061252,27.5282869 9.74261061,26.8707226 9.81,26.151 C9.81,11.777 15.91,8.792 20.48,8.792 C19.6711253,8.81051154 18.8894493,8.49954894 18.3143297,7.93046335 C17.7392101,7.36137776 17.4200206,6.58302498 17.43,5.774 C17.43,3.274 19.48,2 22,2 C24.52,2 26.57,3.273 26.57,5.774 C26.5845388,6.58438668 26.2668033,7.36542101 25.6906668,7.93551281 C25.1145303,8.50560461 24.3301883,8.81508504 23.52,8.792 C28.01,8.792 34.19,11.811 34.19,26.151 C34.2573894,26.8707226 34.5938748,27.5282869 35.1174335,28.0015762 Z M26.45854,36.969 C26.4777054,37.1428367 26.487019,37.3196089 26.4859138,37.4987405 C26.4705195,39.9939474 24.4393723,42.0064275 21.9441297,41.998784 C19.448887,41.9911404 17.4301073,39.9662543 17.43,37.471 C17.4308934,37.3012913 17.4410634,37.1337985 17.460027,36.969 L26.45854,36.969 Z" id="nav_button_bell_nor-3"></path>
            </g>
        </g>
    </g>
</svg>